<svg xmlns="http://www.w3.org/2000/svg" version="1.1" xmlns:xlink="http://www.w3.org/1999/xlink" xmlns:svgjs="http://svgjs.dev/svgjs" width="1440" height="500" preserveAspectRatio="none" viewBox="0 0 1440 500">
    <g mask="url(&quot;#SvgjsMask1010&quot;)" fill="none">
        <rect width="1440" height="500" x="0" y="0" fill="#1e3266"></rect>
        <path d="M1536 500L0 500 L0 304.85Q73.23 258.09, 120 331.32Q173.03 264.35, 240 317.38Q242.64 248.02, 312 250.66Q355.07 221.74, 384 264.81Q426.19 235, 456 277.2Q510.14 259.34, 528 313.47Q594.87 260.34, 648 327.21Q667.95 275.16, 720 295.12Q773.75 228.88, 840 282.63Q886.88 209.51, 960 256.39Q1060.35 236.74, 1080 337.09Q1091.39 276.49, 1152 287.88Q1220.63 236.5, 1272 305.13Q1314.19 275.32, 1344 317.52Q1388.78 290.29, 1416 335.07Q1454.64 253.71, 1536 292.35z" fill="#182f5d"></path>
        <path d="M1512 500L0 500 L0 388.18Q63.51 331.69, 120 395.21Q125.9 329.11, 192 335Q260.82 283.82, 312 352.65Q365.01 333.66, 384 386.68Q407.05 289.73, 504 312.77Q549.34 286.11, 576 331.44Q665.48 300.92, 696 390.4Q743.38 317.78, 816 365.17Q827.94 305.12, 888 317.06Q963.4 272.46, 1008 347.86Q1089.62 309.48, 1128 391.09Q1154.05 297.14, 1248 323.19Q1327.13 282.31, 1368 361.44Q1395.29 316.73, 1440 344.02Q1462.67 294.69, 1512 317.36z" fill="#25467d"></path>
        <path d="M1536 500L0 500 L0 423.3Q37.72 341.02, 120 378.75Q169.18 355.93, 192 405.11Q237.18 378.29, 264 423.47Q285.01 372.49, 336 393.5Q387.01 324.51, 456 375.53Q512.1 359.63, 528 415.73Q552.65 368.38, 600 393.04Q658.07 379.11, 672 437.18Q703.27 348.45, 792 379.72Q863.66 331.38, 912 403.04Q980 351.04, 1032 419.04Q1087.54 402.58, 1104 458.11Q1127.87 361.98, 1224 385.85Q1303.88 345.73, 1344 425.61Q1387.74 397.36, 1416 441.1Q1458.49 363.59, 1536 406.08z" fill="#356cb1"></path>
        <path d="M1464 500L0 500 L0 514.14Q62 456.14, 120 518.15Q168.29 446.44, 240 494.73Q253.94 436.67, 312 450.61Q341.63 408.25, 384 437.88Q445.74 427.62, 456 489.36Q501.33 414.69, 576 460.02Q606.13 418.15, 648 448.28Q707.49 435.76, 720 495.25Q770.64 425.89, 840 476.54Q899.71 464.25, 912 523.96Q917.26 457.22, 984 462.48Q1025.14 431.62, 1056 472.76Q1105.58 450.34, 1128 499.91Q1144.74 444.65, 1200 461.39Q1248.97 390.36, 1320 439.33Q1377.85 425.18, 1392 483.03Q1419.38 438.4, 1464 465.78z" fill="white"></path>
    </g>
    <defs>
        <mask id="SvgjsMask1010">
            <rect width="1440" height="500" fill="#ffffff"></rect>
        </mask>
    </defs>
</svg>
